name new_emg_signals
nRows=53
nColumns=7
 
endheader
time	RGLTMED	RRF	RADDLONG	RBF	RTA	RGM
2.099999999999957	0.9202071563366626	0.8569504297270284	0.4864209208093	0.8617697596831784	0.7810255265328084	0.9661519981131024
2.109999999999957	0.9219296163163122	0.8611077687307114	0.4873465247303815	0.8644932985627395	0.7826323640811723	0.966793513519142
2.119999999999955	0.9235082539304614	0.8652390597030343	0.488375380937779	0.8672320295863306	0.7842813118041181	0.9673407869745498
2.1299999999999546	0.9249422580274316	0.8693418663391183	0.4895075332679715	0.8699835426392988	0.7859702486289417	0.9677902758260516
2.1399999999999544	0.926231052149592	0.8734138184659531	0.4907429515065354	0.8727454825927132	0.7876970572303104	0.9681386311989189
2.149999999999954	0.9273742960393369	0.8774526106393782	0.4920815292286796	0.8755155521732886	0.7894596239565376	0.9683827072878688
2.159999999999954	0.9283718865366136	0.8814560005293572	0.4935230816606336	0.8782915143432086	0.7912558386415619	0.968519569955298
2.169999999999952	0.9292239578517472	0.8854218071240183	0.4950673435750936	0.8810711941828325	0.7930835943136466	0.9685465045889592
2.1799999999999518	0.929930881203802	0.8893479087821857	0.496713967235162	0.8838524802723425	0.7949407868137911	0.9684610231735896
2.1899999999999515	0.9304932638216574	0.8932322411633652	0.498462520402031	0.8866333255733394	0.7968253143391628	0.9682608705341614
2.199999999999953	0.930911947310974	0.8970727950628209	0.5003124844222621	0.8894117478189618	0.7987350769295019	0.9679440297137868
2.209999999999953	0.9311880053939952	0.900867614178856	0.502263252411097	0.892185829428935	0.8006679759166074	0.967508726457136
2.2199999999999527	0.9313227410316942	0.9046147928386502	0.5043141275485842	0.8949537169734183	0.802621913358697	0.9669534327798508
2.2299999999999525	0.9313176829400328	0.908312473708009	0.5064643215053359	0.8977136202139858	0.8045947914816808	0.9662768696149496
2.2399999999999523	0.9311745815138412	0.9119588455089424	0.5087129530145174	0.9004638107527659	0.8065845121487023	0.9654780085374152
2.249999999999952	0.9308954041736228	0.9155521407679006	0.5110590466061261	0.9032026203220334	0.808588976377779	0.964556072577182
2.259999999999952	0.9304823301515898	0.919090633615982	0.5135015315187417	0.9059284387476332	0.8106060839258437	0.9635105361377228
2.2699999999999516	0.9299377447336894	0.9225726376614422	0.5160392408027626	0.9086397116211998	0.8126337329561457	0.9623411240440704
2.279999999999953	0.9292642329761694	0.9259965039530722	0.5186709106278327	0.9113349377170892	0.8146698198044942	0.9610478097517
2.289999999999951	0.928464572917526	0.9293606190510972	0.521395179805819	0.9140126661897802	0.8167122388588096	0.9596308127563092
2.299999999999951	0.9275417283099536	0.9326634032197886	0.5242105895392233	0.9166714935860152	0.8187588825649268	0.9580905952518434
2.3099999999999508	0.926498840897323	0.9359033087533976	0.5271155834033111	0.9193100607047436	0.8208076415707214	0.9564278580888144
2.3199999999999505	0.92533922226898	0.939078818444953	0.5301085075684843	0.9219270493372648	0.8228564050194368	0.9546435360867508
2.3299999999999503	0.9240663453208704	0.9421884442060856	0.5331876112675611	0.9245211789200718	0.8249030610027961	0.9527387927549188
2.33999999999995	0.9226838353566496	0.9452307258446832	0.5363510475107268	0.9270912031328856	0.8269454971837311	0.9507150144744304
2.34999999999995	0.9211954608631924	0.9482042300071312	0.5395968740491135	0.9296359064742664	0.8289816015973692	0.9485738041928784
2.3599999999999497	0.919605123995449	0.9511075492922014	0.5429230545863108	0.9321541008464518	0.8310092636375255	0.9463169746800626
2.3699999999999477	0.9179168508073192	0.9539393015448436	0.5463274602356172	0.9346446221800516	0.8330263752345636	0.9439465413900467
2.3799999999999493	0.9161347812659832	0.9566981293389322	0.5498078712195579	0.9371063271272264	0.8350308322299796	0.9414647149717014
2.389999999999949	0.914263159086804	0.9593826996570388	0.5533619788075111	0.9395380898499824	0.837020535952652	0.938873893467312
2.399999999999949	0.9123063214265554	0.9619917037741228	0.5569873874874736	0.9419387989272056	0.8389933950015408	0.9361766542369044
2.4099999999999486	0.910268688472454	0.9645238573494894	0.5606816173691801	0.9443073544014976	0.8409473272386557	0.9333757456449636
2.4199999999999484	0.9081547529658088	0.966977900728864	0.5644421068175993	0.9466426649838526	0.8428802619949471	0.9304740785449483
2.429999999999948	0.9059690696983672	0.9693525994554552	0.5682662153176983	0.9489436454313868	0.8447901424899966	0.9274747175959694
2.439999999999948	0.903716245018974	0.9716467449858605	0.5721512265728123	0.95120921411074	0.8466749284649651	0.9243808724443092
2.4499999999999478	0.9014009263854676	0.9738591556037972	0.5760943518396242	0.9534382907571216	0.8485325990264845	0.9211958888010062
2.4599999999999476	0.899027791994551	0.9759886775228196	0.580092733502836	0.9556297944361908	0.8503611556978531	0.9179232394454818
2.469999999999949	0.8966015405194855	0.9780341861676544	0.5841434488922634	0.9577826417138792	0.8521586256722687	0.914566515184185
2.479999999999949	0.8941268809833961	0.9799945876232552	0.5882435143443362	0.9598957450370336	0.8539230652613222	0.911129415791879
2.489999999999947	0.8916085227941627	0.9818688202401826	0.5923898895087734	0.9619680113270574	0.8556525635297176	0.9076157409618932
2.4999999999999467	0.8890511659655252	0.9836558563844408	0.5965794818997958	0.9639983407884656	0.8573452461054324	0.9040293812899844
2.5099999999999465	0.8864594915471434	0.9853547043192232	0.6008091516897285	0.9659856259342632	0.8589992791521853	0.9003743093149326
2.5199999999999463	0.8838381522850096	0.9869644102053554	0.605075716741209	0.967928750830643	0.8606128734896487	0.896654570636921
2.529999999999946	0.881191763531983	0.988484060206557	0.6093759578724516	0.9698265905639528	0.8621842888449467	0.8928742751328776
2.539999999999944	0.8785248944272855	0.9899127826857675	0.613706624348118	0.9716780109340069	0.8637118382172325	0.8890375882855694
2.549999999999944	0.8758420593631584	0.991249750478669	0.6180644395864628	0.9734818683790544	0.8651938923348147	0.8851487226416752
2.5599999999999437	0.873147709757434	0.9924941832303078	0.6224461070717113	0.975237010138138	0.8666288841822088	0.8812119294126898
2.569999999999945	0.8704462261505609	0.9936453497801256	0.6268483164590807	0.9769422746565718	0.868015313571878	0.8772314902320458
2.579999999999945	0.8677419106453631	0.9947025705802084	0.6312677498585282	0.9785964922398912	0.8693517517331425	0.873211709081792
2.589999999999945	0.8650389797065025	0.9956652201311962	0.6357010882820867	0.980198485961052	0.8706368458882551	0.8691569044016889
2.5999999999999446	0.862341557334804	0.996532729420512	0.6401450182384456	0.9817470728245868	0.8718693237833846	0.8650714013926852
2.6099999999999444	0.8596536686296612	0.9973045883476894	0.6445962384572202	0.9832410651905298	0.8730479981397278	0.8609595245260057
2.619999999999944	0.8569792337505928	0.9979803481229133	0.6490514667241298	0.9846792724593716	0.8741717709879219	0.8568255902689701
